Patient4_TMGait_0pt7_02_right_45_GRF.mot
version=1
nRows=78
nColumns=19
inDegrees=no
endheader
time	F1x	F1y	F1z	M1x	M1y	M1z	F2x	F2y	F2z	M2x	M2y	M2z	EC1x	EC1y	EC1z	EC2x	EC2y	EC2z
50.97	36.1865	719.234	61.4984	-232.6567	-55.2567	722.4288	-19.3062	-4.404	-14.9682	3.7131	11.6143	5.3024	-0.0592	0.0182	-0.0073	-0.0462	0.0165	0.9585
50.9811	24.4991	722.1949	64.5608	-233.1405	-59.3497	715.9658	-12.8358	-1.9804	-10.2133	2.9489	7.8944	4.6519	-0.0592	0.0182	-0.0073	-0.0462	0.0165	0.9585
50.9921	14.6744	725.9533	66.9473	-233.947	-62.4701	710.9881	-7.4669	0.11588	-6.142	2.2995	4.7406	4.1761	-0.0592	0.0182	-0.0073	-0.0462	0.0165	0.9585
51.0032	7.3117	730.4249	68.5518	-235.0903	-64.4447	707.7334	-3.4249	1.7458	-3.0077	1.8091	2.3243	3.8501	-0.0592	0.0182	-0.0073	-0.0462	0.0165	0.9585
51.0143	2.4632	735.4247	69.3564	-236.5345	-65.2508	706.0028	-0.69673	2.9631	-0.82391	1.4921	0.6586	3.7572	-0.0592	0.0182	-0.0073	-0.0462	0.0165	0.9585
51.0254	-0.11098	740.6775	69.4954	-238.1957	-65.0399	705.3284	0.96647	3.7707	0.54491	1.3111	-0.37657	3.7696	-0.0592	0.0182	-0.0073	-0.0462	0.0165	0.9585
51.0364	-0.82095	745.8307	69.1128	-239.9567	-63.9958	705.0804	1.7896	4.2853	1.2789	1.2369	-0.91282	3.8944	-0.0592	0.0182	-0.0073	-0.0462	0.0165	0.9585
51.0475	0.0090756	750.505	68.3507	-241.6838	-62.2829	704.6241	2.0686	4.516	1.5669	1.211	-1.112	3.9807	-0.0592	0.0182	-0.0073	-0.0462	0.0165	0.9585
51.0586	2.0208	754.3581	67.3801	-243.2449	-60.1048	703.4077	1.9782	4.5143	1.5748	1.1889	-1.0955	4.0032	-0.0592	0.0182	-0.0073	-0.0462	0.0165	0.9585
51.0696	4.947	757.0882	66.2998	-244.5205	-57.5896	700.9675	1.7243	4.2315	1.418	1.1099	-0.95693	3.8041	-0.0592	0.0182	-0.0073	-0.0462	0.0165	0.9585
51.0807	8.5705	758.5293	65.2543	-245.4252	-54.9055	697.0749	1.3877	3.6168	1.1929	0.9225	-0.76151	3.2867	-0.0592	0.0182	-0.0073	-0.0462	0.0165	0.9585
51.0918	12.7205	758.6181	64.2929	-245.9134	-52.1334	691.6253	1.0727	2.5705	0.93643	0.57019	-0.54169	2.2851	-0.0592	0.0182	-0.0073	-0.0462	0.0165	0.9585
51.1029	17.2633	757.4767	63.5045	-245.9925	-49.3849	684.7935	0.79727	1.005	0.69374	0.0057557	-0.33064	0.6895	-0.0592	0.0182	-0.0073	-0.0462	0.0165	0.9585
51.1139	22.0915	755.361	62.918	-245.7135	-46.7192	676.8923	0.60821	-1.1453	0.49083	-0.80129	-0.16073	-1.5941	-0.0592	0.0182	-0.0073	-0.0462	0.0165	0.9585
51.125	27.0643	752.6078	62.5816	-245.1494	-44.2236	668.3385	0.51913	-3.8309	0.35364	-1.8337	-0.066802	-4.503	-0.0592	0.0182	-0.0073	-0.0462	0.0165	0.9585
51.1361	32.0959	749.5726	62.535	-244.3807	-41.9688	659.5801	0.56393	-6.8485	0.31711	-3.0059	-0.10374	-7.8096	-0.0592	0.0182	-0.0073	-0.0462	0.0165	0.9585
51.1471	37.0473	746.5303	62.8033	-243.465	-40.0286	650.9706	0.78338	-9.7015	0.41666	-4.1149	-0.33522	-10.9566	-0.0592	0.0182	-0.0073	-0.0462	0.0165	0.9585
51.1582	41.7916	743.6455	63.3996	-242.4266	-38.4677	642.7966	1.2031	-11.5203	0.70843	-4.8054	-0.84083	-12.9792	-0.0592	0.0182	-0.0073	-0.0462	0.0165	0.9585
51.1693	46.181	740.8736	64.296	-241.2318	-37.3168	635.1585	1.8623	-10.9612	1.2446	-4.5315	-1.6969	-12.41	-0.0592	0.0182	-0.0073	-0.0462	0.0165	0.9585
51.1804	50.0304	737.9303	65.4466	-239.783	-36.5946	627.9302	2.7605	-6.1406	2.0917	-2.5336	-2.9722	-7.1771	-0.0592	0.0182	-0.0073	-0.0462	0.0165	0.9585
51.1914	53.2388	734.3255	66.7504	-237.9343	-36.2536	620.7826	3.8767	5.2889	3.273	2.1344	-4.6733	5.291	-0.0592	0.0182	-0.0073	-0.0462	0.0165	0.9585
51.2025	55.7111	729.3774	68.0642	-235.5006	-36.2101	613.1664	5.0993	26.0186	4.7721	10.5446	-6.7234	27.9615	-0.0592	0.0182	-0.0073	-0.0462	0.0165	0.9585
51.2136	57.4707	722.2541	69.1749	-232.2718	-36.2982	604.3733	6.2247	58.5521	6.4528	23.6929	-8.8752	63.5589	-0.0592	0.0182	-0.0073	-0.0462	0.0165	0.9585
51.2246	58.5807	711.9403	69.8329	-227.9962	-36.2992	593.5227	6.8628	104.5351	8.0343	42.2112	-10.6461	113.8988	-0.0592	0.0182	-0.0073	-0.0462	0.0165	0.9585
51.2357	59.1339	697.2806	69.7195	-222.3867	-35.9257	579.5583	6.3576	163.5277	9.0103	65.8923	-11.2027	178.4817	-0.0592	0.0182	-0.0073	-0.0462	0.0165	0.9585
51.2468	59.2186	676.9869	68.5215	-215.114	-34.893	561.3353	3.4112	231.8254	8.7239	93.1956	-9.3213	253.2533	-0.0592	0.0182	-0.0073	-0.0462	0.0165	0.9585
51.2579	58.8443	649.726	65.9596	-205.8269	-32.9702	537.6601	-3.0069	301.4583	6.2864	120.8947	-3.7047	329.4209	-0.0592	0.0182	-0.0073	-0.0462	0.0165	0.9585
51.2689	57.9156	614.3558	61.9442	-194.2075	-30.1183	507.5288	-12.1065	363.4599	0.84868	145.428	6.0771	397.0067	-0.0592	0.0182	-0.0073	-0.0462	0.0165	0.9585
51.28	56.2296	570.403	56.5664	-180.1043	-26.4735	470.5282	-22.117	414.5163	-6.8184	165.4656	18.4825	452.0965	-0.0592	0.0182	-0.0073	-0.0462	0.0165	0.9585
51.2911	53.5227	518.2774	50.1697	-163.6016	-22.3824	427.0057	-31.7958	456.2489	-15.7651	181.6639	31.9833	496.2687	-0.0592	0.0182	-0.0073	-0.0462	0.0165	0.9585
51.3021	49.6805	459.2573	43.2845	-145.0343	-18.2844	378.0099	-39.906	492.2758	-25.2984	195.4936	45.378	533.297	-0.0592	0.0182	-0.0073	-0.0462	0.0165	0.9585
51.3132	44.6175	395.4633	36.3433	-125.0039	-14.5184	325.2793	-45.7875	526.1289	-34.3766	208.4065	57.3198	567.0241	-0.0592	0.0182	-0.0073	-0.0462	0.0165	0.9585
51.3243	38.3488	329.6775	29.7314	-104.3304	-11.3698	271.0868	-49.0124	559.7801	-42.5348	221.2272	67.1656	599.608	-0.0592	0.0182	-0.0073	-0.0462	0.0165	0.9585
51.3354	31.0671	265.0867	23.656	-83.9853	-8.936	218.0529	-49.7591	593.6346	-49.3846	234.1319	74.5915	631.6053	-0.0592	0.0182	-0.0073	-0.0462	0.0165	0.9585
51.3464	23.2199	204.885	18.3059	-64.9652	-7.2336	168.7617	-48.4084	626.9055	-55.0562	246.8136	79.9042	662.2817	-0.0592	0.0182	-0.0073	-0.0462	0.0165	0.9585
51.3575	15.5499	151.7066	13.7418	-48.1142	-6.08	125.3	-45.578	658.535	-59.8295	258.8219	83.6401	690.7308	-0.0592	0.0182	-0.0073	-0.0462	0.0165	0.9585
51.3686	8.8116	107.1156	9.9733	-33.9512	-5.2433	88.865	-41.8047	687.3071	-63.9476	269.673	86.2771	715.8052	-0.0592	0.0182	-0.0073	-0.0462	0.0165	0.9585
51.3796	3.5206	71.4968	6.9541	-22.6235	-4.529	59.7235	-37.6197	712.3725	-67.6881	279.0144	88.289	736.8185	-0.0592	0.0182	-0.0073	-0.0462	0.0165	0.9585
51.3907	-0.20043	44.3588	4.5758	-13.9929	-3.8079	37.4778	-33.3131	733.1015	-71.0264	286.6174	89.7778	753.2092	-0.0592	0.0182	-0.0073	-0.0462	0.0165	0.9585
51.4018	-2.4473	24.7253	2.7932	-7.7535	-3.0846	21.3321	-29.2286	749.1863	-73.955	292.3798	90.8526	764.7941	-0.0592	0.0182	-0.0073	-0.0462	0.0165	0.9585
51.4129	-3.4633	11.3996	1.4779	-3.5273	-2.3333	10.3532	-25.4148	760.6003	-76.2426	296.3288	91.3228	771.5718	-0.0592	0.0182	-0.0073	-0.0462	0.0165	0.9585
51.4239	-3.5267	3.1518	0.601	-0.91799	-1.6314	3.5333	-21.9647	767.6154	-77.7112	298.6047	91.0462	773.8835	-0.0592	0.0182	-0.0073	-0.0462	0.0165	0.9585
51.435	-3.06	-1.2448	0.059905	0.46652	-1.0316	-0.099754	-18.753	770.7019	-78.2689	299.4162	89.9021	772.2051	-0.0592	0.0182	-0.0073	-0.0462	0.0165	0.9585
51.4461	-2.3418	-2.9659	-0.21324	0.99857	-0.57399	-1.5402	-15.7584	770.3632	-77.9485	298.9652	87.9177	767.1109	-0.0592	0.0182	-0.0073	-0.0462	0.0165	0.9585
51.4571	-1.6168	-3.016	-0.3045	0.99827	-0.26766	-1.5861	-12.9254	767.0934	-77.0132	297.4387	85.3352	759.1216	-0.0592	0.0182	-0.0073	-0.0462	0.0165	0.9585
51.4682	-0.96246	-2.1931	-0.2924	0.71887	-0.071837	-0.92871	-10.2688	761.6036	-75.7046	295.089	82.405	748.9989	-0.0592	0.0182	-0.0073	-0.0462	0.0165	0.9585
51.4793	-0.46868	-0.99177	-0.21498	0.32459	0.014309	0.053509	-7.7801	754.7291	-74.292	292.2265	79.3993	737.5828	-0.0592	0.0182	-0.0073	-0.0462	0.0165	0.9585
51.4904	-0.11025	0.20788	-0.11737	-0.069981	0.037111	1.0053	-5.4523	747.5222	-72.8803	289.2414	76.4352	725.9334	-0.0592	0.0182	-0.0073	-0.0462	0.0165	0.9585
51.5014	0.10114	1.2814	-0.013773	-0.42258	0.007797	1.8574	-3.2868	740.9078	-71.5396	286.4896	73.592	714.9418	-0.0592	0.0182	-0.0073	-0.0462	0.0165	0.9585
51.5125	0.22559	2.1044	0.090581	-0.70039	-0.045881	2.4902	-1.2434	735.6657	-70.2602	284.268	70.8606	705.3557	-0.0592	0.0182	-0.0073	-0.0462	0.0165	0.9585
51.5236	0.26458	2.7214	0.17681	-0.9154	-0.10186	2.9753	0.71699	732.2775	-69.0513	282.7583	68.2382	697.615	-0.0592	0.0182	-0.0073	-0.0462	0.0165	0.9585
51.5346	0.28234	3.1423	0.26338	-1.0711	-0.16464	3.2998	2.6358	730.8654	-67.9438	282.0051	65.7366	691.8216	-0.0592	0.0182	-0.0073	-0.0462	0.0165	0.9585
51.5457	0.26226	3.4444	0.32663	-1.1878	-0.21924	3.5509	4.54	731.2808	-66.9722	281.9397	63.3746	687.8347	-0.0592	0.0182	-0.0073	-0.0462	0.0165	0.9585
51.5568	0.25887	3.6644	0.38476	-1.2756	-0.27911	3.7447	6.4216	733.0796	-66.1717	282.3854	61.1875	685.2347	-0.0592	0.0182	-0.0073	-0.0462	0.0165	0.9585
51.5679	0.23631	3.8401	0.42755	-1.3428	-0.34126	3.931	8.2783	735.7334	-65.5222	283.1261	59.1625	683.5399	-0.0592	0.0182	-0.0073	-0.0462	0.0165	0.9585
51.5789	0.22684	3.9731	0.45507	-1.3883	-0.39383	4.0876	10.1202	738.5955	-64.9997	283.9072	57.2816	682.1431	-0.0592	0.0182	-0.0073	-0.0462	0.0165	0.9585
51.59	0.19084	4.019	0.48092	-1.3986	-0.45566	4.1904	11.9317	741.0114	-64.5811	284.4709	55.5379	680.4538	-0.0592	0.0182	-0.0073	-0.0462	0.0165	0.9585
51.6011	0.15008	3.9202	0.49527	-1.3544	-0.51533	4.1421	13.7468	742.3443	-64.2532	284.5716	53.9231	677.8936	-0.0592	0.0182	-0.0073	-0.0462	0.0165	0.9585
51.6121	0.082277	3.5805	0.52507	-1.2223	-0.60222	3.835	15.5789	742.0682	-64.031	284.0107	52.4583	673.9893	-0.0592	0.0182	-0.0073	-0.0462	0.0165	0.9585
51.6232	0.0034309	2.8844	0.56126	-0.96494	-0.70122	3.1181	17.4799	739.9582	-63.8968	282.7043	51.1154	668.5294	-0.0592	0.0182	-0.0073	-0.0462	0.0165	0.9585
51.6343	-0.087348	1.7044	0.62467	-0.53963	-0.82879	1.8422	19.4846	736.0948	-63.8489	280.6944	49.872	661.5789	-0.0592	0.0182	-0.0073	-0.0462	0.0165	0.9585
51.6454	-0.16886	-0.063609	0.69617	0.085927	-0.9557	-0.12996	21.6316	730.9343	-63.874	278.1668	48.69	653.5164	-0.0592	0.0182	-0.0073	-0.0462	0.0165	0.9585
51.6564	-0.20263	-2.4657	0.75322	0.92384	-1.0426	-2.8633	23.9547	725.1737	-63.9872	275.3985	47.5569	644.9273	-0.0592	0.0182	-0.0073	-0.0462	0.0165	0.9585
51.6675	-0.15375	-5.4074	0.75626	1.9394	-1.0282	-6.248	26.4694	719.6027	-64.216	272.7022	46.4745	636.4783	-0.0592	0.0182	-0.0073	-0.0462	0.0165	0.9585
51.6786	0.060398	-8.5862	0.62974	3.0241	-0.80623	-9.9415	29.1982	715.0183	-64.5918	270.3886	45.457	628.8456	-0.0592	0.0182	-0.0073	-0.0462	0.0165	0.9585
51.6896	0.48785	-11.3699	0.30861	3.9564	-0.27922	-13.1977	32.0967	712.0152	-65.1704	268.6915	44.5595	622.5294	-0.0592	0.0182	-0.0073	-0.0462	0.0165	0.9585
51.7007	1.2453	-12.6903	-0.31593	4.3569	0.70701	-14.825	35.1568	710.9118	-65.9782	267.7339	43.8062	617.7986	-0.0592	0.0182	-0.0073	-0.0462	0.0165	0.9585
51.7118	2.3617	-10.9512	-1.3068	3.6604	2.2446	-12.9838	38.3099	711.5668	-67.0403	267.467	43.2322	614.5436	-0.0592	0.0182	-0.0073	-0.0462	0.0165	0.9585
51.7229	3.9131	-3.9831	-2.7333	1.1003	4.4316	-5.2195	41.4937	713.4066	-68.3073	267.6762	42.8131	612.3059	-0.0592	0.0182	-0.0073	-0.0462	0.0165	0.9585
51.7339	5.8097	10.8898	-4.5825	-4.2549	7.2284	11.5532	44.5926	715.4289	-69.6852	267.9881	42.5103	610.2867	-0.0592	0.0182	-0.0073	-0.0462	0.0165	0.9585
51.745	7.8973	36.5592	-6.7278	-13.4029	10.4259	40.6343	47.4476	716.2965	-70.9957	267.9106	42.2334	607.4298	-0.0592	0.0182	-0.0073	-0.0462	0.0165	0.9585
51.7561	9.7457	75.5771	-8.8758	-27.1992	13.523	84.997	49.8757	714.4416	-71.9804	266.8701	41.8366	602.5244	-0.0592	0.0182	-0.0073	-0.0462	0.0165	0.9585
51.7671	10.6946	129.1501	-10.4454	-46.009	15.6075	146.0399	51.6813	708.1267	-72.3139	264.2362	41.1373	594.2184	-0.0592	0.0182	-0.0073	-0.0462	0.0165	0.9585
51.7782	9.688	195.771	-10.5395	-69.2172	15.2654	222.1161	52.7073	695.638	-71.6165	259.3852	39.905	581.1711	-0.0592	0.0182	-0.0073	-0.0462	0.0165	0.9585
51.7893	5.2332	269.7577	-7.8405	-94.7381	10.4924	306.773	52.8377	675.477	-69.5637	251.7701	37.9435	562.1995	-0.0592	0.0182	-0.0073	-0.0462	0.0165	0.9585
51.8004	-3.5821	341.8927	-0.98507	-119.2839	-0.47059	389.504	52.0472	646.6154	-65.9633	241.0141	35.1299	536.4641	-0.0592	0.0182	-0.0073	-0.0462	0.0165	0.9585
51.8114	-15.1035	403.6731	9.8626	-139.9777	-16.7398	460.2351	50.3842	608.7242	-60.882	226.9833	31.5187	503.6836	-0.0592	0.0182	-0.0073	-0.0462	0.0165	0.9585
51.8225	-27.2242	452.993	22.719	-156.2057	-35.3817	516.1302	47.9585	562.2236	-54.6561	209.8017	27.3483	464.1626	-0.0592	0.0182	-0.0073	-0.0462	0.0165	0.9585
